<svg viewBox="0 0 48 48" version="1.1"
    xmlns="http://www.w3.org/2000/svg"
    xmlns:xlink="http://www.w3.org/1999/xlink" xml:space="preserve"
    xmlns:serif="http://www.serif.com/" style="fill-rule:evenodd;clip-rule:evenodd;stroke-linejoin:round;stroke-miterlimit:2;">
    <g>
        <rect x="9" y="17" width="30" height="15" style="fill:#303031;"/>
        <path d="M39,17c0,8.284 -6.716,15 -15,15c-8.284,0 -15,-6.716 -15,-15c0,-8.284 6.716,-15 15,-15c8.284,0 15,6.716 15,15" style="fill:#303031;fill-rule:nonzero;"/>
        <path d="M37,23.5c0,1.381 -1.119,2.5 -2.5,2.5c-1.381,0 -2.5,-1.119 -2.5,-2.5c0,-1.381 1.119,-2.5 2.5,-2.5c1.381,0 2.5,1.119 2.5,2.5" style="fill:#f4aac8;fill-rule:nonzero;"/>
        <path d="M16,23.5c0,1.381 -1.119,2.5 -2.5,2.5c-1.381,0 -2.5,-1.119 -2.5,-2.5c0,-1.381 1.119,-2.5 2.5,-2.5c1.381,0 2.5,1.119 2.5,2.5" style="fill:#f8cadd;fill-rule:nonzero;"/>
        <path d="M37,26.5c0,1.381 -1.119,2.5 -2.5,2.5c-1.381,0 -2.5,-1.119 -2.5,-2.5c0,-1.381 1.119,-2.5 2.5,-2.5c1.381,0 2.5,1.119 2.5,2.5" style="fill:#47ad4d;fill-rule:nonzero;"/>
        <path d="M16,26.5c0,1.381 -1.119,2.5 -2.5,2.5c-1.381,0 -2.5,-1.119 -2.5,-2.5c0,-1.381 1.119,-2.5 2.5,-2.5c1.381,0 2.5,1.119 2.5,2.5" style="fill:#47ad4d;fill-rule:nonzero;"/>
        <path d="M35,18c0,-6.075 -4.925,-11 -11,-11c-6.075,0 -11,4.925 -11,11c0,6.075 4.925,11 11,11c6.075,0 11,-4.925 11,-11" style="fill:#f8cadd;fill-rule:nonzero;"/>
        <path d="M24,29c6.075,0 11,-4.925 11,-11c0,-6.075 -4.925,-11 -11,-11" style="fill:#f4aac8;fill-rule:nonzero;"/>
        <path d="M27,23.5c0,1.381 -1.343,2.5 -3,2.5c-1.657,0 -3,-1.119 -3,-2.5c0,-1.381 1.343,-2.5 3,-2.5c1.657,0 3,1.119 3,2.5" style="fill:#e42528;fill-rule:nonzero;"/>
        <path d="M15.606,32.1c-0.783,0.415 -1.533,0.882 -2.243,1.403c-4.457,3.277 -7.362,8.541 -7.362,14.497l18,-0l-0,-12c-3.368,-0 -6.377,-1.517 -8.395,-3.9" style="fill:#47ad4d;fill-rule:nonzero;"/>
        <path d="M24,36l0,-6c-0.903,0 -1.785,0.087 -2.652,0.217c-0.158,0.023 -0.316,0.045 -0.471,0.072c-0.864,0.153 -1.712,0.357 -2.528,0.629c-0.043,0.015 -0.085,0.033 -0.129,0.047c-0.907,0.311 -1.779,0.692 -2.615,1.135c2.018,2.383 5.028,3.9 8.395,3.9" style="fill:#f8cadd;fill-rule:nonzero;"/>
        <path d="M34.638,33.503c-0.71,-0.521 -1.46,-0.989 -2.243,-1.403c-2.018,2.383 -5.028,3.9 -8.395,3.9l-0,12l18,-0c-0,-5.956 -2.905,-11.221 -7.362,-14.497" style="fill:#007745;fill-rule:nonzero;"/>
        <path d="M29.651,30.919c-0.816,-0.272 -1.664,-0.477 -2.528,-0.629c-0.156,-0.028 -0.314,-0.049 -0.471,-0.073c-0.867,-0.13 -1.749,-0.216 -2.652,-0.216l0,6c3.367,-0 6.377,-1.518 8.394,-3.901c-0.836,-0.442 -1.708,-0.824 -2.614,-1.134c-0.044,-0.015 -0.086,-0.033 -0.129,-0.047" style="fill:#f4aac8;fill-rule:nonzero;"/>
        <path d="M17,9l18,11l2,-6.906l-6.187,-8.25l-6.188,-2.063l-6.188,2.063l-1.437,4.156Z" style="fill:#303031;fill-rule:nonzero;"/>
    </g>
</svg>
