<svg viewBox="0 0 48 48" version="1.1"
    xmlns="http://www.w3.org/2000/svg"
    xmlns:xlink="http://www.w3.org/1999/xlink" xml:space="preserve"
    xmlns:serif="http://www.serif.com/" style="fill-rule:evenodd;clip-rule:evenodd;stroke-linejoin:round;stroke-miterlimit:2;">
    <g>
        <path d="M35,15c0,-6.075 -4.925,-11 -11,-11c-6.075,0 -11,4.925 -11,11c0,6.075 4.925,11 11,11c6.075,0 11,-4.925 11,-11" style="fill:#303031;fill-rule:nonzero;"/>
        <path d="M34.638,33.503c-1.467,-1.078 -3.103,-1.937 -4.857,-2.538c-0.044,-0.014 -0.086,-0.032 -0.129,-0.046c-0.817,-0.273 -1.664,-0.477 -2.529,-0.63c-0.155,-0.028 -0.313,-0.049 -0.47,-0.072c-0.868,-0.13 -1.749,-0.217 -2.653,-0.217c-0.903,-0 -1.785,0.087 -2.652,0.217c-0.157,0.023 -0.315,0.044 -0.471,0.072c-0.864,0.153 -1.712,0.357 -2.528,0.63c-0.043,0.014 -0.085,0.032 -0.129,0.046c-1.755,0.601 -3.391,1.46 -4.857,2.538c-4.457,3.276 -7.363,8.541 -7.363,14.497l36,-0c-0,-5.956 -2.905,-11.221 -7.362,-14.497" style="fill:#0971b7;fill-rule:nonzero;"/>
        <path d="M34.638,33.503c-1.467,-1.078 -3.103,-1.937 -4.857,-2.538c-0.044,-0.014 -0.086,-0.032 -0.129,-0.046c-0.817,-0.273 -1.664,-0.477 -2.529,-0.63c-0.155,-0.028 -0.313,-0.049 -0.47,-0.072c-0.868,-0.13 -1.749,-0.217 -2.653,-0.217l-0,18l18,-0c-0,-5.956 -2.905,-11.221 -7.362,-14.497" style="fill:#2f358b;fill-rule:nonzero;"/>
        <path d="M37,23.5c0,1.381 -1.119,2.5 -2.5,2.5c-1.381,0 -2.5,-1.119 -2.5,-2.5c0,-1.381 1.119,-2.5 2.5,-2.5c1.381,0 2.5,1.119 2.5,2.5" style="fill:#f4aac8;fill-rule:nonzero;"/>
        <path d="M16,23.5c0,1.381 -1.119,2.5 -2.5,2.5c-1.381,0 -2.5,-1.119 -2.5,-2.5c0,-1.381 1.119,-2.5 2.5,-2.5c1.381,0 2.5,1.119 2.5,2.5" style="fill:#f8cadd;fill-rule:nonzero;"/>
        <path d="M35,18c0,-6.075 -4.925,-11 -11,-11c-6.075,0 -11,4.925 -11,11c0,6.075 4.925,11 11,11c6.075,0 11,-4.925 11,-11" style="fill:#f8cadd;fill-rule:nonzero;"/>
        <path d="M24,29c6.075,0 11,-4.925 11,-11c0,-6.075 -4.925,-11 -11,-11" style="fill:#f4aac8;fill-rule:nonzero;"/>
        <path d="M24.023,22c2.327,0 4.266,1.933 4.823,4c0.104,-0.386 0.177,-0.783 0.177,-1.2c0,-2.651 -2.238,-4.8 -5,-4.8c-2.762,0 -5,2.149 -5,4.8c0,0.417 0.073,0.814 0.177,1.2c0.557,-2.067 2.496,-4 4.823,-4" style="fill:#303031;fill-rule:nonzero;"/>
        <path d="M24,27c-5.737,0 -10.443,-4.394 -10.949,-10c-0.03,0.33 -0.051,0.663 -0.051,1c0,6.075 4.925,11 11,11c6.075,0 11,-4.925 11,-11c0,-0.337 -0.021,-0.67 -0.051,-1c-0.506,5.606 -5.212,10 -10.949,10" style="fill:#303031;fill-rule:nonzero;"/>
        <path d="M24,34l0,14l5,0l-3,-14l-2,0Z" style="fill:#cccbcb;fill-rule:nonzero;"/>
        <path d="M27.123,30.289c-0.155,-0.027 -0.313,-0.049 -0.471,-0.072c-0.867,-0.13 -1.749,-0.217 -2.652,-0.217l0,4l2,0l1.786,-3.572c-0.222,-0.046 -0.439,-0.099 -0.663,-0.139" style="fill:#e6e5e5;fill-rule:nonzero;"/>
        <path d="M24,34l0,14l-5,0l3,-14l2,0Z" style="fill:#e6e5e5;fill-rule:nonzero;"/>
        <path d="M20.877,30.289c0.155,-0.027 0.313,-0.049 0.471,-0.072c0.867,-0.13 1.749,-0.217 2.652,-0.217l0,4l-2,0l-1.786,-3.572c0.222,-0.046 0.439,-0.099 0.663,-0.139" style="fill:#e6e5e5;fill-rule:nonzero;"/>
        <path d="M15,11c0.728,-3.816 4.319,-6.455 8.272,-6.455c1.862,0 2.358,1.381 3.728,2.455" style="fill:#303031;fill-rule:nonzero;"/>
    </g>
</svg>
